<svg width="24" height="24" viewBox="0 0 24 24" fill="none" xmlns="http://www.w3.org/2000/svg">
<path d="M23.0769 9.93103H10.1538C9.13846 9.93103 8.30769 9.18621 8.30769 8.27586C8.30769 7.36552 9.13846 6.62069 10.1538 6.62069H23.0769C23.6308 6.62069 24 6.28966 24 5.7931C24 5.29655 23.6308 4.96552 23.0769 4.96552H3.69231C2.67692 4.96552 1.84615 4.22069 1.84615 3.31034C1.84615 2.4 2.67692 1.65517 3.69231 1.65517H16.6154C17.1692 1.65517 17.5385 1.32414 17.5385 0.827586C17.5385 0.331034 17.1692 0 16.6154 0H3.69231C1.66154 0 0 1.48966 0 3.31034V15.7241C0 17.5448 1.66154 19.0345 3.69231 19.0345H6.46154V20.6897C6.46154 22.5103 8.12308 24 10.1538 24H23.0769C23.6308 24 24 23.669 24 23.1724V10.7586C24 10.2621 23.6308 9.93103 23.0769 9.93103Z" fill="#FF5F5F"/>
<path d="M23.0769 7.44828H10.1538C9.6 7.44828 9.23077 7.77931 9.23077 8.27586C9.23077 8.77241 9.6 9.10345 10.1538 9.10345H23.0769C23.6308 9.10345 24 8.77241 24 8.27586C24 7.77931 23.6308 7.44828 23.0769 7.44828Z" fill="#FF5F5F"/>
<path d="M16.6154 2.48276H3.69231C3.13846 2.48276 2.76923 2.81379 2.76923 3.31034C2.76923 3.8069 3.13846 4.13793 3.69231 4.13793H16.6154C17.1692 4.13793 17.5385 3.8069 17.5385 3.31034C17.5385 2.81379 17.1692 2.48276 16.6154 2.48276Z" fill="#FF5F5F"/>
</svg>
