<svg width="24" height="24" viewBox="0 0 24 24" fill="none" xmlns="http://www.w3.org/2000/svg">
<path fill-rule="evenodd" clip-rule="evenodd" d="M20.625 0H3.375C1.71825 0 0.375 1.34325 0.375 3V13.5H23.625V3C23.625 1.34325 22.2818 0 20.625 0ZM0.375 16.5C0.375 18.1568 1.71825 19.5 3.375 19.5H20.625C22.2818 19.5 23.625 18.1568 23.625 16.5V15H0.375V16.5ZM16.875 22.5H15.375V21H9.375V22.5H7.875C7.46025 22.5 7.125 22.836 7.125 23.25C7.125 23.6647 7.46025 24 7.875 24H16.875C17.2897 24 17.625 23.6647 17.625 23.25C17.625 22.836 17.2897 22.5 16.875 22.5Z" fill="#FF5F5F"/>
</svg>
