<svg width="20" height="24" viewBox="0 0 20 24" fill="none" xmlns="http://www.w3.org/2000/svg">
<path d="M10.924 0H2.12799C1.02399 0 0.123993 0.9 0.123993 2.004V21.996C0.123993 23.1 1.02399 24 2.12799 24H10.924C12.028 24 12.928 23.1 12.928 21.996V2.004C12.928 0.9 12.028 0 10.924 0ZM5.33199 1.596H7.73199C7.94799 1.596 8.12799 1.776 8.12799 1.992C8.12799 2.208 7.94799 2.388 7.73199 2.388H5.33199C5.11599 2.388 4.93599 2.208 4.93599 1.992C4.92399 1.776 5.10399 1.596 5.33199 1.596ZM6.53199 23.196C5.87199 23.196 5.33199 22.656 5.33199 21.996C5.33199 21.336 5.87199 20.796 6.53199 20.796C7.19199 20.796 7.73199 21.336 7.73199 21.996C7.73199 22.656 7.19199 23.196 6.53199 23.196ZM12.124 19.992H0.927993V3.996H12.124V19.992Z" fill="#FF5F5F"/>
<path d="M18.004 1.56006H12.892C12.928 1.70406 12.94 1.84806 12.94 1.99206V3.04806H15.016C15.22 3.04806 15.388 3.21606 15.388 3.42006C15.388 3.62406 15.22 3.79206 15.016 3.79206H12.94V5.29206H19.12V20.2441H12.928V21.5281C13.12 21.2041 13.48 20.9881 13.876 20.9881C14.5 20.9881 14.992 21.4921 14.992 22.1041C14.992 22.7281 14.488 23.2201 13.876 23.2201C13.408 23.2201 13.012 22.9321 12.844 22.5241C12.604 23.3521 11.836 23.9641 10.924 23.9641H17.992C19.024 23.9641 19.864 23.1241 19.864 22.0921V3.43206C19.876 2.40006 19.024 1.56006 18.004 1.56006Z" fill="#FFA28D"/>
</svg>
