<svg width="51" height="55" viewBox="0 0 51 55" fill="none" xmlns="http://www.w3.org/2000/svg">
<path d="M44.0792 8.54162C40.4986 4.6985 35.8148 2.05973 30.6726 0.988575C25.5304 -0.0825813 20.1825 0.466542 15.3653 2.56035C10.5481 4.65416 6.49826 8.1897 3.77343 12.6803C1.04859 17.1708 -0.217306 22.3956 0.150001 27.6354L1.125 41.0416V43.7499C1.125 46.6231 2.26637 49.3786 4.29801 51.4103C6.32965 53.4419 9.08515 54.5833 11.9583 54.5833H14.6667C16.1033 54.5833 17.481 54.0126 18.4968 52.9968C19.5126 51.981 20.0833 50.6032 20.0833 49.1666V30.2083C20.0833 28.7717 19.5126 27.3939 18.4968 26.3781C17.481 25.3623 16.1033 24.7916 14.6667 24.7916H11.9583C9.65257 24.7955 7.4101 25.5462 5.56667 26.9312C5.4118 24.2181 5.81256 21.502 6.74439 18.9493C7.67621 16.3965 9.11948 14.061 10.9857 12.0857C12.852 10.1104 15.102 8.53696 17.5977 7.46184C20.0935 6.38673 22.7825 5.83255 25.5 5.83328C28.2175 5.83255 30.9065 6.38673 33.4023 7.46184C35.898 8.53696 38.148 10.1104 40.0143 12.0857C41.8805 14.061 43.3238 16.3965 44.2556 18.9493C45.1874 21.502 45.5882 24.2181 45.4333 26.9312C43.5899 25.5462 41.3474 24.7955 39.0417 24.7916H36.3333C34.8967 24.7916 33.519 25.3623 32.5032 26.3781C31.4873 27.3939 30.9167 28.7717 30.9167 30.2083V49.1666C30.9167 50.6032 31.4873 51.981 32.5032 52.9968C33.519 54.0126 34.8967 54.5833 36.3333 54.5833H39.0417C41.9148 54.5833 44.6703 53.4419 46.702 51.4103C48.7336 49.3786 49.875 46.6231 49.875 43.7499V41.0416L50.85 27.4999C51.0647 24.046 50.5752 20.5845 49.4113 17.3255C48.2474 14.0665 46.4333 11.0781 44.0792 8.54162Z" fill="url(#paint0_linear_9_553)"/>
<defs>
<linearGradient id="paint0_linear_9_553" x1="25.4935" y1="0.454712" x2="25.4935" y2="54.5833" gradientUnits="userSpaceOnUse">
<stop stop-color="#FF5F5F"/>
<stop offset="1" stop-color="#9D1407"/>
</linearGradient>
</defs>
</svg>
