<svg width="55" height="60" viewBox="0 0 55 60" fill="none" xmlns="http://www.w3.org/2000/svg">
<path d="M53.9934 4.57031L50.8105 1.09804C50.4913 0.749731 50.1123 0.473432 49.6952 0.284923C49.2781 0.0964146 48.831 -0.000610352 48.3795 -0.000610352C47.9281 -0.000610352 47.481 0.0964146 47.0639 0.284923C46.6468 0.473432 46.2678 0.749731 45.9486 1.09804L40.9771 6.52734C40.5604 6.98072 40.2466 7.53412 40.0608 8.14335L38.7545 12.4219L30.5626 21.3586C29.2563 20.332 27.8233 19.5141 26.2549 19.1156C22.6617 18.2039 19.0577 19.0125 16.5999 21.6937C15.5972 22.792 14.8515 24.1373 14.4256 25.616C13.7811 27.791 11.9324 29.4469 9.8978 29.6543C7.35191 29.9203 4.9854 30.9961 3.17212 32.9871C-1.73061 38.3203 -0.84868 47.9297 5.11109 54.4277C11.0709 60.9258 19.873 61.875 24.7671 56.5453C26.5933 54.5672 27.5773 51.9867 27.8233 49.1965C28.0124 46.9875 29.5302 44.9625 31.5218 44.2582C32.8776 43.7928 34.111 42.979 35.1183 41.8851C37.5751 39.2039 38.313 35.2805 37.4816 31.3676C37.1174 29.6519 36.3676 28.0863 35.4234 26.6566L43.6132 17.7223L47.532 16.2973C48.0904 16.0946 48.5977 15.7523 49.0133 15.2977L53.9902 9.86953C54.6341 9.1669 54.9961 8.21421 54.9967 7.22064C54.9974 6.22708 54.6365 5.27387 53.9934 4.57031ZM22.3437 41.25C21.3239 41.25 20.327 40.9201 19.479 40.302C18.6311 39.6839 17.9702 38.8054 17.5799 37.7776C17.1897 36.7498 17.0876 35.6188 17.2865 34.5276C17.4855 33.4365 17.9766 32.4342 18.6977 31.6475C19.4188 30.8608 20.3376 30.3251 21.3378 30.1081C22.338 29.891 23.3747 30.0024 24.3169 30.4282C25.2591 30.8539 26.0644 31.5749 26.631 32.4999C27.1975 33.4249 27.5 34.5125 27.5 35.625C27.5 37.1168 26.9567 38.5476 25.9897 39.6025C25.0227 40.6574 23.7112 41.25 22.3437 41.25Z" fill="url(#paint0_linear_9_557)"/>
<defs>
<linearGradient id="paint0_linear_9_557" x1="27.4982" y1="-0.000610352" x2="27.4982" y2="59.9963" gradientUnits="userSpaceOnUse">
<stop stop-color="#FF5F5F"/>
<stop offset="1" stop-color="#9D1407"/>
</linearGradient>
</defs>
</svg>
