<svg width="40" height="45" viewBox="0 0 40 45" fill="none" xmlns="http://www.w3.org/2000/svg">
<path d="M34.6527 3.06164C31.1264 1.17336 25.4926 0 19.9521 0C14.4567 0 8.85447 1.16 5.33658 3.03C2.77492 4.39164 1.03941 6.72664 0.325126 9.37664L38.8081 17.0633C39.0901 16.3633 39.3221 15.7349 39.4923 15.2116C41.0259 10.4966 38.9916 5.38664 34.6527 3.06164Z" fill="#EE2211"/>
<path d="M19.9489 40H19.9606C24.7017 40 29.9835 33.4267 33.9102 26.8184L2.67493 20.5784C6.43649 28.4334 13.6741 39.9967 19.9489 40Z" fill="#EE2211"/>
<path d="M0.455587 15.2705C0.604138 15.7255 0.801032 16.2621 1.03469 16.8521L35.6343 23.7621C36.3001 22.5188 36.9025 21.3138 37.4349 20.1871L0 12.7105C0.0550709 13.5655 0.178589 14.4222 0.455587 15.2705Z" fill="#EE2211"/>
<path d="M27.8108 30.7307C26.4516 28.401 27.8108 24.7473 27.8108 24.7473C29.7546 19.7839 24.955 18.6986 22.0313 18.4865H22.0302V10.2404C22.4113 10.0289 22.6697 9.63073 22.6697 9.16724V8.3737H23.459C23.8802 8.3737 24.2205 8.0431 24.2205 7.63276C24.2205 7.22243 23.8802 6.89128 23.459 6.89128H22.6697V6.52026H23.459C23.8802 6.52026 24.2205 6.18911 24.2205 5.77933C24.2205 5.36954 23.8802 5.03839 23.459 5.03839H22.6697V4.23046C22.6697 3.55542 22.0986 3 21.3919 3H18.5361C17.8429 3 17.2719 3.55542 17.2719 4.23046V5.03784H16.4831C16.0613 5.03784 15.7215 5.36899 15.7215 5.77877C15.7215 6.18911 16.0619 6.5197 16.4831 6.5197H17.2719V6.89072H16.4831C16.0613 6.89072 15.7215 7.22187 15.7215 7.63221C15.7215 8.04255 16.0619 8.37314 16.4831 8.37314H17.2719V9.16724C17.2719 9.62797 17.5285 10.0234 17.9057 10.236V18.4865C14.9814 18.6858 10.175 19.7734 12.1183 24.7467C12.1183 24.7467 13.4916 28.401 12.1183 30.7296C10.7585 33.0465 2.5722 43.3448 19.6245 45H20.3046C37.3569 43.3454 29.1705 33.046 27.8108 30.7307ZM20.6987 4.85288C20.6987 4.64079 20.861 4.48186 21.0792 4.48186C21.2828 4.48186 21.4597 4.64079 21.4597 4.85288V8.24135C21.4597 8.29451 21.4467 8.33383 21.4326 8.3737C21.3789 8.51934 21.242 8.61181 21.0792 8.61181C20.9158 8.61181 20.7796 8.51934 20.7253 8.3737C20.7123 8.33383 20.6987 8.29451 20.6987 8.24135V4.85288ZM18.4818 4.85288C18.4818 4.64079 18.6452 4.48186 18.8629 4.48186C19.0664 4.48186 19.2434 4.64079 19.2434 4.85288V8.24135C19.2434 8.29451 19.2304 8.33383 19.2162 8.3737C19.162 8.51934 19.0257 8.61181 18.8629 8.61181C18.6995 8.61181 18.5632 8.51934 18.5089 8.3737C18.4959 8.33383 18.4818 8.29451 18.4818 8.24135V4.85288ZM19.9648 26.773C21.7192 26.773 23.1457 28.1623 23.1457 29.8701C23.1457 31.5774 21.7187 32.954 19.9648 32.954C18.211 32.954 16.7964 31.5774 16.7964 29.8701C16.7958 28.1623 18.2104 26.773 19.9648 26.773ZM23.459 38.3283H16.4831C16.0613 38.3283 15.7215 37.9971 15.7215 37.5862C15.7215 37.1765 16.0619 36.8453 16.4831 36.8453H23.459C23.8802 36.8453 24.2205 37.1765 24.2205 37.5862C24.2205 37.9977 23.8802 38.3283 23.459 38.3283Z" fill="#080909"/>
</svg>
