<svg width="220" height="193" viewBox="0 0 220 193" fill="none" xmlns="http://www.w3.org/2000/svg">
<path d="M110 192.973L33.0821 152.806V37.0102L110 2.54243L186.917 37.0102V152.806L110 192.973ZM40.7043 148.475L110 184.664L179.295 148.475V41.6481L110 10.5963L40.7043 41.6481V148.475Z" fill="white"/>
<path d="M140.813 72.7435H143.288C144.174 72.7435 144.895 72.0559 144.895 71.2078V62.9424C144.895 62.0944 144.176 61.4068 143.288 61.4068H140.813C139.927 61.4068 139.207 62.0944 139.207 62.9424V71.2078C139.209 72.0559 139.927 72.7435 140.813 72.7435Z" fill="white"/>
<path d="M131.648 68.9411H139.209V65.0838H131.648V68.9411Z" fill="white"/>
<path d="M140.813 55.6453H143.288C144.174 55.6453 144.895 54.9578 144.895 54.1079V45.8443C144.895 44.9962 144.176 44.3068 143.288 44.3068H140.813C139.927 44.3068 139.207 44.9944 139.207 45.8443V54.1079C139.209 54.9578 139.927 55.6453 140.813 55.6453Z" fill="white"/>
<path d="M131.648 51.8423H139.209V47.985H131.648V51.8423Z" fill="white"/>
<path d="M140.813 38.5475H143.288C144.174 38.5475 144.895 37.8599 144.895 37.0118V28.7465C144.895 27.8984 144.176 27.2108 143.288 27.2108H140.813C139.927 27.2108 139.207 27.8984 139.207 28.7465V37.0118C139.209 37.8581 139.927 38.5475 140.813 38.5475Z" fill="white"/>
<path d="M131.648 34.7455H139.209V30.8882H131.648V34.7455Z" fill="white"/>
<path d="M80.5078 72.7435H78.0325C77.1464 72.7435 76.4261 72.0559 76.4261 71.2078V62.9425C76.4261 62.0944 77.1445 61.4068 78.0325 61.4068H80.5078C81.3939 61.4068 82.1142 62.0944 82.1142 62.9425V71.2078C82.1142 72.0559 81.3939 72.7435 80.5078 72.7435Z" fill="white"/>
<path d="M89.6757 65.0835H82.1145V68.9408H89.6757V65.0835Z" fill="white"/>
<path d="M80.5078 55.6454H78.0325C77.1464 55.6454 76.4261 54.9579 76.4261 54.108V45.8444C76.4261 44.9963 77.1445 44.3069 78.0325 44.3069H80.5078C81.3939 44.3069 82.1142 44.9945 82.1142 45.8444V54.108C82.1142 54.9579 81.3939 55.6454 80.5078 55.6454Z" fill="white"/>
<path d="M89.6757 47.9857H82.1145V51.843H89.6757V47.9857Z" fill="white"/>
<path d="M80.5078 38.5475H78.0325C77.1464 38.5475 76.4261 37.8599 76.4261 37.0119V28.7465C76.4261 27.8984 77.1445 27.2108 78.0325 27.2108H80.5078C81.3939 27.2108 82.1142 27.8984 82.1142 28.7465V37.0119C82.1142 37.8581 81.3939 38.5475 80.5078 38.5475Z" fill="white"/>
<path d="M89.6757 30.8859H82.1145V34.7432H89.6757V30.8859Z" fill="white"/>
<path d="M125.431 93.7609L136.985 77.8666V24.1396L141.377 16.1989C142.301 14.5283 140.998 12.5331 139.024 12.5914C136.144 12.6771 132.385 12.4528 129.185 11.147C120.801 7.72374 121.702 0 110.76 0C100.916 0 100.367 8.03374 92.1145 11.4005C88.9036 12.7099 85.3536 12.8996 82.6058 12.7628C80.6316 12.6644 79.3168 14.6997 80.2429 16.3721L84.538 24.1378V77.8648L96.0914 93.7591L125.431 93.7609Z" fill="white"/>
<path d="M125.098 95.5973V117.065C116.774 126.394 110.661 132.482 110.661 132.482C110.661 132.482 104.525 126.365 96.162 116.998V95.5973H125.098Z" fill="white"/>
<path d="M93.778 62.2971C92.446 62.1348 91.1236 62.4795 90.0622 63.2674C89.0008 64.0553 88.3224 65.1915 88.1528 66.4681C87.8022 69.1017 89.7573 71.5182 92.5089 71.8519C92.7242 71.8775 92.9377 71.8903 93.1473 71.8903C95.6416 71.8903 97.8121 70.1102 98.136 67.681C98.3056 66.4061 97.9455 65.1422 97.1223 64.1264C96.2991 63.1087 95.1119 62.4595 93.778 62.2971Z" fill="#7E7E7E"/>
<path d="M93.778 45.1991C92.446 45.0368 91.1236 45.3815 90.0622 46.1694C89.0008 46.9573 88.3224 48.0935 88.1528 49.3701C87.8022 52.0037 89.7573 54.4202 92.5089 54.7558C92.7242 54.7813 92.9377 54.7941 93.1473 54.7941C95.6416 54.7941 97.8121 53.0141 98.136 50.5848C98.3056 49.31 97.9455 48.0461 97.1223 47.0302C96.2991 46.0107 95.1119 45.3615 93.778 45.1991Z" fill="#7E7E7E"/>
<path d="M93.778 28.1009C92.446 27.9386 91.1236 28.2833 90.0622 29.0712C89.0008 29.8591 88.3224 30.9952 88.1528 32.2719C87.8022 34.9054 89.7573 37.322 92.5089 37.6557C92.7242 37.6812 92.9377 37.694 93.1473 37.694C95.6416 37.694 97.8121 35.914 98.136 33.4847C98.3056 32.2099 97.9455 30.946 97.1223 29.9283C96.2991 28.9125 95.1119 28.2632 93.778 28.1009Z" fill="#7E7E7E"/>
<path d="M128.545 62.2971C127.213 62.1348 125.892 62.4795 124.829 63.2674C123.767 64.0553 123.089 65.1915 122.92 66.4681C122.571 69.1017 124.524 71.5182 127.276 71.8519C127.491 71.8775 127.704 71.8903 127.914 71.8903C130.408 71.8903 132.579 70.1102 132.903 67.681C133.072 66.4061 132.712 65.1422 131.889 64.1264C131.066 63.1087 129.879 62.4595 128.545 62.2971Z" fill="#7E7E7E"/>
<path d="M128.545 45.1991C127.213 45.0368 125.892 45.3815 124.829 46.1694C123.767 46.9573 123.089 48.0935 122.92 49.3701C122.571 52.0037 124.524 54.4202 127.276 54.7558C127.491 54.7813 127.704 54.7941 127.914 54.7941C130.408 54.7941 132.579 53.0141 132.903 50.5848C133.072 49.31 132.712 48.0461 131.889 47.0302C131.066 46.0107 129.879 45.3615 128.545 45.1991Z" fill="#7E7E7E"/>
<path d="M128.545 28.1009C127.213 27.9386 125.892 28.2833 124.829 29.0712C123.767 29.8591 123.089 30.9952 122.92 32.2719C122.571 34.9054 124.524 37.322 127.276 37.6557C127.491 37.6812 127.704 37.694 127.914 37.694C130.408 37.694 132.579 35.914 132.903 33.4847C133.072 32.2099 132.712 30.946 131.889 29.9283C131.066 28.9125 129.879 28.2632 128.545 28.1009Z" fill="#7E7E7E"/>
<path d="M158.632 69.1723H167.285L157.7 80.6695H167.285L157.7 91.977L161.56 83.4599H152.774L158.632 69.1723Z" fill="white"/>
<path d="M155.408 42.3846H161.099L154.796 49.946H161.099L154.796 57.3853L157.334 51.7826H151.556L155.408 42.3846Z" fill="white"/>
<path d="M52.7953 69.1724H44.1441L53.7271 80.6695H44.1441L53.7271 91.977L49.8665 83.4599H58.653L52.7953 69.1724Z" fill="white"/>
<path d="M64.0648 42.3846H58.3748L64.6784 49.946H58.3748L64.6784 57.3853L62.1383 51.7826H67.9178L64.0648 42.3846Z" fill="white"/>
<path d="M95.9009 63.9893L100.259 95.5298V121.53C99.9273 121.169 99.5881 120.8 99.2585 120.425V95.5973L94.9081 64.1151L95.9009 63.9893Z" fill="#7E7E7E"/>
<path d="M96.2532 46.8038L104.293 95.5974V125.87C103.969 125.531 103.639 125.17 103.292 124.809V95.6338L95.2699 46.9515L96.2532 46.8038Z" fill="#7E7E7E"/>
<path d="M96.7698 31.1082L108.697 95.5974V130.485C108.396 130.175 108.058 129.828 107.696 129.445V95.6338L95.7846 31.2778L96.7698 31.1082Z" fill="#7E7E7E"/>
<path d="M124.705 30.7766L113.586 95.6341V129.489C113.217 129.872 112.885 130.219 112.586 130.529L112.594 95.5174L123.72 30.6215L124.705 30.7766Z" fill="#7E7E7E"/>
<path d="M125.622 46.9513L118.015 95.6628V124.823C117.668 125.192 117.338 125.546 117.014 125.892V95.5972L124.637 46.8127L125.622 46.9513Z" fill="#7E7E7E"/>
<path d="M122.041 95.6486L122.049 120.447C121.71 120.822 121.371 121.191 121.048 121.552V95.5976L125.067 63.9968L126.06 64.1153L122.041 95.6486Z" fill="#7E7E7E"/>
<path d="M220 152.427H0L11.9211 129.54L0 106.652H220L207.216 129.54L220 152.427Z" fill="white"/>
<path d="M46.36 132.76L49.58 123.44L48.32 123.32V121.7H52.9L56.98 133.24H57L58.14 133.3V135H52.98V133.38L53.74 133.32C53.9667 133.293 54.12 133.24 54.2 133.16C54.28 133.08 54.2867 132.933 54.22 132.72L53.8 131.48H49.12L48.52 133.24L49.72 133.3V135H45.1V133.38L45.76 133.32C46.04 133.293 46.24 133.107 46.36 132.76ZM51.46 123.94L49.6 129.64H53.32L51.52 123.94H51.46Z" fill="#111111"/>
<path d="M58.7822 126.54V124.94H62.1622V126.24C62.5089 125.747 62.9689 125.36 63.5422 125.08C64.1155 124.787 64.7355 124.64 65.4022 124.64C66.4155 124.64 67.1955 124.933 67.7422 125.52C68.3022 126.093 68.5822 126.96 68.5822 128.12V133.34L69.7222 133.4V135H64.9622V133.48L65.6222 133.42C65.8222 133.393 65.9689 133.34 66.0622 133.26C66.1555 133.167 66.2022 133 66.2022 132.76V128.64C66.2022 127.907 66.0889 127.367 65.8622 127.02C65.6355 126.66 65.2022 126.48 64.5622 126.48C63.9355 126.48 63.4355 126.68 63.0622 127.08C62.6889 127.48 62.5022 127.953 62.5022 128.5V133.34L63.6422 133.4V135H58.8822V133.48L59.5422 133.42C59.7422 133.393 59.8889 133.34 59.9822 133.26C60.0755 133.167 60.1222 133 60.1222 132.76V127.22C60.1222 126.82 59.9555 126.613 59.6222 126.6L58.7822 126.54Z" fill="#111111"/>
<path d="M75.9144 124.64C76.4877 124.64 77.0344 124.72 77.5544 124.88V122.86C77.5544 122.567 77.381 122.407 77.0344 122.38L76.1744 122.32V120.74H79.8944V132.9C79.9077 133.207 80.0744 133.36 80.3944 133.36L81.0944 133.4V135H77.8544V133.82L77.7944 133.8C77.1944 134.773 76.2877 135.26 75.0744 135.26C73.5544 135.26 72.4877 134.753 71.8744 133.74C71.3144 132.82 71.0344 131.693 71.0344 130.36C71.0344 128.627 71.461 127.24 72.3144 126.2C73.181 125.16 74.381 124.64 75.9144 124.64ZM77.5544 131.88V126.7C77.0744 126.487 76.5677 126.38 76.0344 126.38C75.1544 126.38 74.5077 126.733 74.0944 127.44C73.6944 128.147 73.4944 129.047 73.4944 130.14C73.4944 132.38 74.2144 133.5 75.6544 133.5C76.201 133.5 76.6544 133.347 77.0144 133.04C77.3744 132.72 77.5544 132.333 77.5544 131.88Z" fill="#111111"/>
<path d="M87.2816 124.64C88.2816 124.64 89.0749 124.887 89.6616 125.38C90.2482 125.86 90.5416 126.54 90.5416 127.42C90.5416 128.007 90.4149 128.527 90.1616 128.98C89.9082 129.42 89.5949 129.767 89.2216 130.02C88.8482 130.273 88.3949 130.48 87.8616 130.64C86.9682 130.907 85.9616 131.04 84.8416 131.04C84.8816 131.747 85.1016 132.32 85.5016 132.76C85.9016 133.187 86.5149 133.4 87.3416 133.4C88.1682 133.4 88.9949 133.107 89.8216 132.52L90.5816 134.14C90.3149 134.38 89.8616 134.627 89.2216 134.88C88.5949 135.133 87.8749 135.26 87.0616 135.26C85.4349 135.26 84.2416 134.813 83.4816 133.92C82.7216 133.013 82.3416 131.773 82.3416 130.2C82.3416 128.627 82.7749 127.307 83.6416 126.24C84.5082 125.173 85.7216 124.64 87.2816 124.64ZM86.3616 129.22C86.8549 129.127 87.3082 128.933 87.7216 128.64C88.1349 128.333 88.3416 127.973 88.3416 127.56C88.3416 126.747 87.9416 126.34 87.1416 126.34C86.3949 126.34 85.8216 126.64 85.4216 127.24C85.0216 127.827 84.8016 128.533 84.7616 129.36C85.3482 129.347 85.8816 129.3 86.3616 129.22Z" fill="#111111"/>
<path d="M93.1891 132.76V127.22C93.1891 127.007 93.1491 126.86 93.0691 126.78C93.0024 126.687 92.8757 126.633 92.6891 126.62L91.8491 126.56V124.94H95.2291V126.44C95.4691 125.92 95.8424 125.493 96.3491 125.16C96.8557 124.813 97.4357 124.64 98.0891 124.64C98.7557 124.64 99.3891 124.787 99.9891 125.08V128.06L98.1291 128.2V127.28C98.1291 127.013 98.0624 126.847 97.9291 126.78C97.7824 126.713 97.6024 126.68 97.3891 126.68C96.8557 126.68 96.4157 126.873 96.0691 127.26C95.7357 127.633 95.5691 128.113 95.5691 128.7V133.34L97.3091 133.42V135H91.9491V133.48L92.6091 133.42C92.8091 133.393 92.9557 133.34 93.0491 133.26C93.1424 133.167 93.1891 133 93.1891 132.76Z" fill="#111111"/>
<path d="M106.134 126.46C105.814 126.34 105.428 126.28 104.974 126.28C104.521 126.28 104.154 126.387 103.874 126.6C103.608 126.8 103.474 127.053 103.474 127.36C103.474 127.653 103.521 127.887 103.614 128.06C103.721 128.22 103.881 128.36 104.094 128.48C104.428 128.653 104.828 128.807 105.294 128.94C105.761 129.06 106.108 129.16 106.334 129.24C106.561 129.307 106.841 129.427 107.174 129.6C107.521 129.773 107.781 129.96 107.954 130.16C108.421 130.653 108.654 131.287 108.654 132.06C108.654 133.06 108.288 133.847 107.554 134.42C106.834 134.98 105.914 135.26 104.794 135.26C103.168 135.26 101.941 135.053 101.114 134.64V131.86L102.914 131.72V132.68C102.914 133.267 103.474 133.56 104.594 133.56C105.714 133.56 106.274 133.153 106.274 132.34C106.274 132.047 106.174 131.807 105.974 131.62C105.788 131.433 105.601 131.307 105.414 131.24C105.228 131.173 105.001 131.107 104.734 131.04C104.481 130.973 104.228 130.907 103.974 130.84C103.734 130.773 103.468 130.687 103.174 130.58C102.894 130.46 102.581 130.293 102.234 130.08C101.554 129.64 101.214 128.907 101.214 127.88C101.214 126.84 101.581 126.04 102.314 125.48C103.048 124.92 103.968 124.64 105.074 124.64C106.194 124.64 107.301 124.907 108.394 125.44V127.84L106.594 127.98V127.14C106.594 126.807 106.441 126.58 106.134 126.46Z" fill="#111111"/>
<path d="M114.518 133.54C115.971 133.54 116.698 132.367 116.698 130.02C116.698 128.833 116.531 127.933 116.198 127.32C115.878 126.707 115.331 126.4 114.558 126.4C113.798 126.4 113.238 126.693 112.878 127.28C112.518 127.867 112.338 128.667 112.338 129.68C112.338 131.56 112.684 132.74 113.378 133.22C113.684 133.433 114.064 133.54 114.518 133.54ZM109.918 129.96C109.918 128.973 110.064 128.12 110.358 127.4C110.651 126.667 111.044 126.107 111.538 125.72C112.484 125 113.531 124.64 114.678 124.64C115.478 124.64 116.151 124.773 116.698 125.04C117.258 125.293 117.691 125.593 117.998 125.94C118.318 126.273 118.584 126.767 118.798 127.42C119.024 128.06 119.138 128.82 119.138 129.7C119.138 131.54 118.691 132.933 117.798 133.88C116.904 134.827 115.758 135.3 114.358 135.3C112.971 135.3 111.884 134.853 111.098 133.96C110.311 133.053 109.918 131.72 109.918 129.96Z" fill="#111111"/>
<path d="M120.364 126.54V124.94H123.744V126.24C124.091 125.747 124.551 125.36 125.124 125.08C125.698 124.787 126.318 124.64 126.984 124.64C127.998 124.64 128.778 124.933 129.324 125.52C129.884 126.093 130.164 126.96 130.164 128.12V133.34L131.304 133.4V135H126.544V133.48L127.204 133.42C127.404 133.393 127.551 133.34 127.644 133.26C127.738 133.167 127.784 133 127.784 132.76V128.64C127.784 127.907 127.671 127.367 127.444 127.02C127.218 126.66 126.784 126.48 126.144 126.48C125.518 126.48 125.018 126.68 124.644 127.08C124.271 127.48 124.084 127.953 124.084 128.5V133.34L125.224 133.4V135H120.464V133.48L121.124 133.42C121.324 133.393 121.471 133.34 121.564 133.26C121.658 133.167 121.704 133 121.704 132.76V127.22C121.704 126.82 121.538 126.613 121.204 126.6L120.364 126.54Z" fill="#111111"/>
<path d="M140.64 133.2C142.24 133.2 143.04 132.56 143.04 131.28C143.04 130.613 142.687 130.12 141.98 129.8C141.607 129.613 141.12 129.44 140.52 129.28C139.934 129.12 139.44 128.96 139.04 128.8C138.654 128.627 138.26 128.393 137.86 128.1C137.074 127.513 136.68 126.613 136.68 125.4C136.68 124.173 137.1 123.213 137.94 122.52C138.794 121.813 139.9 121.46 141.26 121.46C142.634 121.46 143.907 121.733 145.08 122.28V125.28L143.04 125.42V124.26C143.04 124.06 143.014 123.913 142.96 123.82C142.814 123.567 142.34 123.44 141.54 123.44C140.754 123.44 140.167 123.58 139.78 123.86C139.407 124.14 139.22 124.573 139.22 125.16C139.22 125.587 139.38 125.96 139.7 126.28C139.914 126.493 140.227 126.673 140.64 126.82C141.067 126.953 141.514 127.093 141.98 127.24C142.46 127.387 142.88 127.547 143.24 127.72C143.614 127.893 144 128.133 144.4 128.44C145.214 129.04 145.62 129.967 145.62 131.22C145.62 132.473 145.167 133.46 144.26 134.18C143.367 134.9 142.18 135.26 140.7 135.26C139.234 135.26 137.914 134.987 136.74 134.44V131.28L138.78 131.14V132.36C138.78 132.56 138.807 132.707 138.86 132.8C138.914 132.893 139.074 132.987 139.34 133.08C139.62 133.16 140.054 133.2 140.64 133.2Z" fill="#111111"/>
<path d="M150.55 124.94V133.34L151.69 133.4V135H146.93V133.48L147.59 133.42C147.976 133.38 148.17 133.167 148.17 132.78V127.22C148.17 126.993 148.13 126.84 148.05 126.76C147.983 126.68 147.856 126.64 147.67 126.64L146.97 126.6V124.94H150.55ZM148.03 123.22C147.75 122.94 147.61 122.587 147.61 122.16C147.61 121.733 147.75 121.38 148.03 121.1C148.31 120.807 148.676 120.66 149.13 120.66C149.583 120.66 149.95 120.807 150.23 121.1C150.523 121.38 150.67 121.733 150.67 122.16C150.67 122.587 150.523 122.94 150.23 123.22C149.95 123.487 149.583 123.62 149.13 123.62C148.676 123.62 148.31 123.487 148.03 123.22Z" fill="#111111"/>
<path d="M156.428 120.74V133.34L157.568 133.4V135H152.807V133.48L153.467 133.42C153.854 133.38 154.048 133.167 154.048 132.78V122.92C154.048 122.627 153.881 122.467 153.548 122.44L152.848 122.4V120.74H156.428Z" fill="#111111"/>
<path d="M164.494 124.94H168.714V126.5L168.094 126.54C167.827 126.567 167.647 126.727 167.554 127.02L164.974 135H161.914L159.114 127.04C159.047 126.853 158.974 126.727 158.894 126.66C158.827 126.593 158.707 126.553 158.534 126.54L157.954 126.5V124.94H162.654V126.54L161.434 126.6L163.494 133.18H163.534L165.534 126.6L164.494 126.54V124.94Z" fill="#111111"/>
<path d="M178.546 125.34V132.78C178.546 132.993 178.58 133.14 178.646 133.22C178.726 133.3 178.86 133.347 179.046 133.36L179.686 133.4V135H176.506V133.84L176.446 133.82C175.78 134.78 174.866 135.26 173.706 135.26C172.346 135.26 171.34 134.827 170.686 133.96C170.033 133.093 169.706 131.907 169.706 130.4C169.706 128.587 170.146 127.173 171.026 126.16C171.906 125.147 173.226 124.64 174.986 124.64C176.12 124.64 177.306 124.873 178.546 125.34ZM176.226 131.82V126.64C175.853 126.467 175.34 126.38 174.686 126.38C173.793 126.38 173.146 126.74 172.746 127.46C172.346 128.18 172.146 129.133 172.146 130.32C172.146 132.48 172.84 133.56 174.226 133.56C174.813 133.56 175.293 133.387 175.666 133.04C176.04 132.68 176.226 132.273 176.226 131.82Z" fill="#111111"/>
</svg>
