<svg width="232" height="45" viewBox="0 0 232 45" fill="none" xmlns="http://www.w3.org/2000/svg">
<path d="M49.3831 34.9957L79.0815 5.29724C79.8626 4.5162 81.1289 4.51619 81.91 5.29724L52.2115 34.9957C51.4304 35.7768 50.1641 35.7768 49.3831 34.9957Z" fill="#EE2211"/>
<path d="M62.472 31.256C60.744 31.256 59.1547 30.9787 57.704 30.424C56.2533 29.848 54.9947 29.048 53.928 28.024C52.8613 26.9787 52.0293 25.7627 51.432 24.376C50.8347 22.9893 50.536 21.464 50.536 19.8C50.536 18.136 50.8347 16.6107 51.432 15.224C52.0293 13.8373 52.8613 12.632 53.928 11.608C55.016 10.5627 56.2853 9.76267 57.736 9.208C59.1867 8.632 60.7867 8.344 62.536 8.344C64.3067 8.344 65.928 8.632 67.4 9.208C68.872 9.784 70.12 10.648 71.144 11.8L69.16 13.784C68.2427 12.888 67.24 12.2373 66.152 11.832C65.0853 11.4053 63.9227 11.192 62.664 11.192C61.384 11.192 60.1893 11.4053 59.08 11.832C57.992 12.2587 57.0427 12.856 56.232 13.624C55.4427 14.392 54.824 15.3093 54.376 16.376C53.9493 17.4213 53.736 18.5627 53.736 19.8C53.736 21.016 53.9493 22.1573 54.376 23.224C54.824 24.2693 55.4427 25.1867 56.232 25.976C57.0427 26.744 57.992 27.3413 59.08 27.768C60.168 28.1947 61.352 28.408 62.632 28.408C63.8267 28.408 64.968 28.2267 66.056 27.864C67.1653 27.48 68.1893 26.8507 69.128 25.976L70.952 28.408C69.8427 29.3467 68.5413 30.0613 67.048 30.552C65.576 31.0213 64.0507 31.256 62.472 31.256ZM67.88 27.992V19.672H70.952V28.408L67.88 27.992Z" fill="white"/>
<path d="M83.7668 31.192C82.3161 31.192 81.0361 30.9253 79.9268 30.392C78.8388 29.8587 77.9854 29.048 77.3668 27.96C76.7694 26.8507 76.4707 25.464 76.4707 23.8V14.04H79.5427V23.448C79.5427 25.112 79.9374 26.36 80.7268 27.192C81.5374 28.024 82.6681 28.44 84.1188 28.44C85.1854 28.44 86.1134 28.2267 86.9027 27.8C87.6921 27.352 88.3001 26.712 88.7268 25.88C89.1534 25.0267 89.3668 24.0027 89.3668 22.808V14.04H92.4388V31H89.5267V26.424L90.0068 27.64C89.4521 28.7707 88.6201 29.6453 87.5107 30.264C86.4014 30.8827 85.1534 31.192 83.7668 31.192Z" fill="white"/>
<path d="M98.287 31V14.04H101.359V31H98.287ZM99.823 10.776C99.2257 10.776 98.7243 10.584 98.319 10.2C97.935 9.816 97.743 9.34667 97.743 8.792C97.743 8.216 97.935 7.736 98.319 7.352C98.7243 6.968 99.2257 6.776 99.823 6.776C100.42 6.776 100.911 6.968 101.295 7.352C101.7 7.71467 101.903 8.17333 101.903 8.728C101.903 9.304 101.711 9.79467 101.327 10.2C100.943 10.584 100.442 10.776 99.823 10.776Z" fill="white"/>
<path d="M113.049 31.192C111.342 31.192 110.019 30.7333 109.08 29.816C108.142 28.8987 107.673 27.5867 107.673 25.88V10.328H110.744V25.752C110.744 26.6693 110.969 27.3733 111.417 27.864C111.886 28.3547 112.547 28.6 113.4 28.6C114.36 28.6 115.16 28.3333 115.8 27.8L116.76 30.008C116.291 30.4133 115.726 30.712 115.064 30.904C114.424 31.096 113.753 31.192 113.049 31.192ZM104.793 16.568V14.04H115.608V16.568H104.793Z" fill="white"/>
<path d="M131.003 31V27.416L130.842 26.744V20.632C130.842 19.3307 130.459 18.328 129.691 17.624C128.944 16.8987 127.813 16.536 126.299 16.536C125.296 16.536 124.314 16.7067 123.354 17.048C122.394 17.368 121.584 17.8053 120.923 18.36L119.643 16.056C120.517 15.352 121.563 14.8187 122.779 14.456C124.016 14.072 125.306 13.88 126.65 13.88C128.976 13.88 130.768 14.4453 132.027 15.576C133.285 16.7067 133.915 18.4347 133.915 20.76V31H131.003ZM125.435 31.192C124.176 31.192 123.066 30.9787 122.106 30.552C121.168 30.1253 120.442 29.5387 119.93 28.792C119.418 28.024 119.162 27.16 119.162 26.2C119.162 25.2827 119.376 24.4507 119.802 23.704C120.25 22.9573 120.965 22.36 121.947 21.912C122.949 21.464 124.293 21.24 125.979 21.24H131.355V23.448H126.106C124.57 23.448 123.536 23.704 123.003 24.216C122.469 24.728 122.202 25.3467 122.202 26.072C122.202 26.904 122.533 27.576 123.195 28.088C123.856 28.5787 124.773 28.824 125.947 28.824C127.099 28.824 128.101 28.568 128.954 28.056C129.829 27.544 130.458 26.7973 130.842 25.816L131.451 27.928C131.045 28.9307 130.331 29.7307 129.307 30.328C128.283 30.904 126.992 31.192 125.435 31.192Z" fill="white"/>
<path d="M139.6 31V14.04H142.544V18.648L142.255 17.496C142.725 16.3227 143.514 15.4267 144.624 14.808C145.733 14.1893 147.098 13.88 148.719 13.88V16.856C148.591 16.8347 148.463 16.824 148.335 16.824C148.229 16.824 148.122 16.824 148.016 16.824C146.373 16.824 145.071 17.3147 144.111 18.296C143.151 19.2773 142.671 20.696 142.671 22.552V31H139.6Z" fill="white"/>
<path d="M162.407 31.256C160.701 31.256 159.122 30.9787 157.671 30.424C156.242 29.848 154.994 29.048 153.927 28.024C152.882 26.9787 152.061 25.7627 151.463 24.376C150.866 22.9893 150.567 21.464 150.567 19.8C150.567 18.136 150.866 16.6107 151.463 15.224C152.061 13.8373 152.893 12.632 153.959 11.608C155.026 10.5627 156.274 9.76267 157.703 9.208C159.154 8.632 160.733 8.344 162.439 8.344C164.167 8.344 165.757 8.64267 167.207 9.24C168.679 9.816 169.927 10.68 170.951 11.832L168.871 13.848C168.018 12.952 167.058 12.2907 165.991 11.864C164.925 11.416 163.783 11.192 162.567 11.192C161.309 11.192 160.135 11.4053 159.047 11.832C157.981 12.2587 157.053 12.856 156.263 13.624C155.474 14.392 154.855 15.3093 154.407 16.376C153.981 17.4213 153.767 18.5627 153.767 19.8C153.767 21.0373 153.981 22.1893 154.407 23.256C154.855 24.3013 155.474 25.208 156.263 25.976C157.053 26.744 157.981 27.3413 159.047 27.768C160.135 28.1947 161.309 28.408 162.567 28.408C163.783 28.408 164.925 28.1947 165.991 27.768C167.058 27.32 168.018 26.6373 168.871 25.72L170.951 27.736C169.927 28.888 168.679 29.7627 167.207 30.36C165.757 30.9573 164.157 31.256 162.407 31.256Z" fill="white"/>
<path d="M175.068 31V7.256H178.14V31H175.068Z" fill="white"/>
<path d="M194.534 31V27.416L194.374 26.744V20.632C194.374 19.3307 193.99 18.328 193.222 17.624C192.475 16.8987 191.344 16.536 189.83 16.536C188.827 16.536 187.846 16.7067 186.886 17.048C185.926 17.368 185.115 17.8053 184.454 18.36L183.174 16.056C184.048 15.352 185.094 14.8187 186.31 14.456C187.547 14.072 188.838 13.88 190.182 13.88C192.507 13.88 194.299 14.4453 195.558 15.576C196.816 16.7067 197.446 18.4347 197.446 20.76V31H194.534ZM188.966 31.192C187.707 31.192 186.598 30.9787 185.638 30.552C184.699 30.1253 183.974 29.5387 183.462 28.792C182.95 28.024 182.694 27.16 182.694 26.2C182.694 25.2827 182.907 24.4507 183.334 23.704C183.782 22.9573 184.496 22.36 185.478 21.912C186.48 21.464 187.824 21.24 189.51 21.24H194.886V23.448H189.638C188.102 23.448 187.067 23.704 186.534 24.216C186 24.728 185.734 25.3467 185.734 26.072C185.734 26.904 186.064 27.576 186.726 28.088C187.387 28.5787 188.304 28.824 189.478 28.824C190.63 28.824 191.632 28.568 192.486 28.056C193.36 27.544 193.99 26.7973 194.374 25.816L194.982 27.928C194.576 28.9307 193.862 29.7307 192.838 30.328C191.814 30.904 190.523 31.192 188.966 31.192Z" fill="white"/>
<path d="M207.995 31.192C206.587 31.192 205.243 31 203.963 30.616C202.704 30.232 201.712 29.7627 200.987 29.208L202.267 26.776C202.992 27.2667 203.888 27.6827 204.955 28.024C206.021 28.3653 207.109 28.536 208.219 28.536C209.648 28.536 210.672 28.3333 211.291 27.928C211.931 27.5227 212.251 26.9573 212.251 26.232C212.251 25.6987 212.059 25.2827 211.675 24.984C211.291 24.6853 210.779 24.4613 210.139 24.312C209.52 24.1627 208.827 24.0347 208.059 23.928C207.291 23.8 206.523 23.6507 205.755 23.48C204.987 23.288 204.283 23.032 203.643 22.712C203.003 22.3707 202.491 21.912 202.107 21.336C201.723 20.7387 201.531 19.9493 201.531 18.968C201.531 17.944 201.819 17.048 202.395 16.28C202.971 15.512 203.781 14.9253 204.827 14.52C205.893 14.0933 207.152 13.88 208.603 13.88C209.712 13.88 210.832 14.0187 211.963 14.296C213.115 14.552 214.053 14.9253 214.779 15.416L213.467 17.848C212.699 17.336 211.899 16.984 211.067 16.792C210.235 16.6 209.403 16.504 208.571 16.504C207.227 16.504 206.224 16.728 205.563 17.176C204.901 17.6027 204.571 18.1573 204.571 18.84C204.571 19.416 204.763 19.864 205.147 20.184C205.552 20.4827 206.064 20.7173 206.683 20.888C207.323 21.0587 208.027 21.208 208.795 21.336C209.563 21.4427 210.331 21.592 211.099 21.784C211.867 21.9547 212.56 22.2 213.179 22.52C213.819 22.84 214.331 23.288 214.715 23.864C215.12 24.44 215.323 25.208 215.323 26.168C215.323 27.192 215.024 28.0773 214.427 28.824C213.829 29.5707 212.987 30.1573 211.899 30.584C210.811 30.9893 209.509 31.192 207.995 31.192Z" fill="white"/>
<path d="M224.026 31.192C222.618 31.192 221.274 31 219.994 30.616C218.735 30.232 217.743 29.7627 217.018 29.208L218.298 26.776C219.023 27.2667 219.919 27.6827 220.986 28.024C222.053 28.3653 223.141 28.536 224.25 28.536C225.679 28.536 226.703 28.3333 227.322 27.928C227.962 27.5227 228.282 26.9573 228.282 26.232C228.282 25.6987 228.09 25.2827 227.706 24.984C227.322 24.6853 226.81 24.4613 226.17 24.312C225.551 24.1627 224.858 24.0347 224.09 23.928C223.322 23.8 222.554 23.6507 221.786 23.48C221.018 23.288 220.314 23.032 219.674 22.712C219.034 22.3707 218.522 21.912 218.138 21.336C217.754 20.7387 217.562 19.9493 217.562 18.968C217.562 17.944 217.85 17.048 218.426 16.28C219.002 15.512 219.813 14.9253 220.858 14.52C221.925 14.0933 223.183 13.88 224.634 13.88C225.743 13.88 226.863 14.0187 227.994 14.296C229.146 14.552 230.085 14.9253 230.81 15.416L229.498 17.848C228.73 17.336 227.93 16.984 227.098 16.792C226.266 16.6 225.434 16.504 224.602 16.504C223.258 16.504 222.255 16.728 221.594 17.176C220.933 17.6027 220.602 18.1573 220.602 18.84C220.602 19.416 220.794 19.864 221.178 20.184C221.583 20.4827 222.095 20.7173 222.714 20.888C223.354 21.0587 224.058 21.208 224.826 21.336C225.594 21.4427 226.362 21.592 227.13 21.784C227.898 21.9547 228.591 22.2 229.21 22.52C229.85 22.84 230.362 23.288 230.746 23.864C231.151 24.44 231.354 25.208 231.354 26.168C231.354 27.192 231.055 28.0773 230.458 28.824C229.861 29.5707 229.018 30.1573 227.93 30.584C226.842 30.9893 225.541 31.192 224.026 31.192Z" fill="white"/>
<path d="M34.6527 3.06164C31.1264 1.17336 25.4926 0 19.9521 0C14.4567 0 8.85447 1.16 5.33658 3.03C2.77492 4.39164 1.03941 6.72664 0.325126 9.37664L38.8081 17.0633C39.0901 16.3633 39.3221 15.7349 39.4923 15.2116C41.0259 10.4966 38.9916 5.38664 34.6527 3.06164Z" fill="#EE2211"/>
<path d="M19.9489 40H19.9606C24.7017 40 29.9835 33.4267 33.9102 26.8184L2.67493 20.5784C6.43649 28.4334 13.6741 39.9967 19.9489 40Z" fill="#EE2211"/>
<path d="M0.455587 15.2705C0.604138 15.7255 0.801032 16.2621 1.03469 16.8521L35.6343 23.7621C36.3001 22.5188 36.9025 21.3138 37.4349 20.1871L0 12.7105C0.0550709 13.5655 0.178589 14.4222 0.455587 15.2705Z" fill="#EE2211"/>
<path d="M27.8108 30.7307C26.4516 28.401 27.8108 24.7473 27.8108 24.7473C29.7546 19.7839 24.955 18.6986 22.0313 18.4865H22.0302V10.2404C22.4113 10.0289 22.6697 9.63073 22.6697 9.16724V8.3737H23.459C23.8802 8.3737 24.2205 8.0431 24.2205 7.63276C24.2205 7.22243 23.8802 6.89128 23.459 6.89128H22.6697V6.52026H23.459C23.8802 6.52026 24.2205 6.18911 24.2205 5.77933C24.2205 5.36954 23.8802 5.03839 23.459 5.03839H22.6697V4.23046C22.6697 3.55542 22.0986 3 21.3919 3H18.5361C17.8429 3 17.2719 3.55542 17.2719 4.23046V5.03784H16.4831C16.0613 5.03784 15.7215 5.36899 15.7215 5.77877C15.7215 6.18911 16.0619 6.5197 16.4831 6.5197H17.2719V6.89072H16.4831C16.0613 6.89072 15.7215 7.22187 15.7215 7.63221C15.7215 8.04255 16.0619 8.37314 16.4831 8.37314H17.2719V9.16724C17.2719 9.62797 17.5285 10.0234 17.9057 10.236V18.4865C14.9814 18.6858 10.175 19.7734 12.1183 24.7467C12.1183 24.7467 13.4916 28.401 12.1183 30.7296C10.7585 33.0465 2.5722 43.3448 19.6245 45H20.3046C37.3569 43.3454 29.1705 33.046 27.8108 30.7307ZM20.6987 4.85288C20.6987 4.64079 20.861 4.48186 21.0792 4.48186C21.2828 4.48186 21.4597 4.64079 21.4597 4.85288V8.24135C21.4597 8.29451 21.4467 8.33383 21.4326 8.3737C21.3789 8.51934 21.242 8.61181 21.0792 8.61181C20.9158 8.61181 20.7796 8.51934 20.7253 8.3737C20.7123 8.33383 20.6987 8.29451 20.6987 8.24135V4.85288ZM18.4818 4.85288C18.4818 4.64079 18.6452 4.48186 18.8629 4.48186C19.0664 4.48186 19.2434 4.64079 19.2434 4.85288V8.24135C19.2434 8.29451 19.2304 8.33383 19.2162 8.3737C19.162 8.51934 19.0257 8.61181 18.8629 8.61181C18.6995 8.61181 18.5632 8.51934 18.5089 8.3737C18.4959 8.33383 18.4818 8.29451 18.4818 8.24135V4.85288ZM19.9648 26.773C21.7192 26.773 23.1457 28.1623 23.1457 29.8701C23.1457 31.5774 21.7187 32.954 19.9648 32.954C18.211 32.954 16.7964 31.5774 16.7964 29.8701C16.7958 28.1623 18.2104 26.773 19.9648 26.773ZM23.459 38.3283H16.4831C16.0613 38.3283 15.7215 37.9971 15.7215 37.5862C15.7215 37.1765 16.0619 36.8453 16.4831 36.8453H23.459C23.8802 36.8453 24.2205 37.1765 24.2205 37.5862C24.2205 37.9977 23.8802 38.3283 23.459 38.3283Z" fill="#080909"/>
</svg>
