<svg width="60" height="60" viewBox="0 0 60 60" fill="none" xmlns="http://www.w3.org/2000/svg">
<path d="M60 30C60 46.5685 46.5685 60 30 60C13.4315 60 0 46.5685 0 30C0 13.4315 13.4315 0 30 0C46.5685 0 60 13.4315 60 30Z" fill="white"/>
<path d="M8 42.2L19.124 17H26.144L37.304 42.2H30.0039C26.5564 33.7225 24.6235 28.9695 21.176 20.492H23.984L15.272 42.2H8ZM14.084 37.304L15.92 32.048H28.232L30.068 37.304H14.084Z" fill="black"/>
<path d="M39.8799 44.7038C37.8159 44.7038 34.1151 44.0033 33.9039 43.9479C33.6927 43.8924 30.3158 43.2 30.0039 42.2L31.5999 36.6758C32.7279 37.3958 34.0239 37.9959 35.4879 38.4759C36.9759 38.9319 38.4519 39.1599 39.9159 39.1599C40.8999 39.1599 41.6919 39.0759 42.2919 38.9079C42.8919 38.7159 43.3239 38.4759 43.5879 38.1879C43.8759 37.8759 44.0199 37.5158 44.0199 37.1078C44.0199 36.5318 43.7559 36.0759 43.2279 35.7399C42.6999 35.4039 42.0159 35.1279 41.1759 34.9118C40.3359 34.6958 39.3999 34.4799 38.3679 34.2639C37.3599 34.0479 36.3399 33.7719 35.3079 33.4359C34.2999 33.0999 33.3759 32.6679 32.5359 32.1399C31.6959 31.5879 31.0119 30.8799 30.4839 30.0159C29.9559 29.1279 29.6919 28.0119 29.6919 26.6679C29.6919 25.1559 30.0999 23.7879 30.9159 22.5639C31.7559 21.3399 33.0039 20.3559 34.6599 19.6119C36.3159 18.8679 38.3799 18.4958 40.8519 18.4958C42.5079 18.4958 44.1279 18.6878 45.7119 19.0718C47.3199 19.4318 48.7479 19.9718 49.9959 20.6918L47.7999 25.9838C46.5999 25.3358 45.4119 24.8558 44.2359 24.5438C43.0599 24.2078 41.9199 24.0399 40.8159 24.0399C39.8319 24.0399 39.0399 24.1479 38.4399 24.3639C37.8399 24.5559 37.4079 24.8198 37.1439 25.1558C36.8799 25.4918 36.7479 25.8758 36.7479 26.3078C36.7479 26.8598 36.9999 27.3038 37.5039 27.6399C38.0319 27.9519 38.7159 28.2159 39.5559 28.4319C40.4199 28.6239 41.3559 28.8279 42.3639 29.0438C43.3959 29.2599 44.4159 29.5358 45.4239 29.8718C46.4559 30.1838 47.3919 30.6159 48.2319 31.1679C49.0719 31.6959 49.7439 32.4039 50.2479 33.2919C50.7759 34.1559 51.0399 35.2478 51.0399 36.5678C51.0399 38.0318 50.6199 39.3878 49.7799 40.6358C48.9639 41.8598 47.7279 42.8439 46.0719 43.5879C44.4399 44.3319 42.3759 44.7038 39.8799 44.7038Z" fill="black"/>
</svg>
