<svg width="378" height="508" viewBox="0 0 378 508" fill="none" xmlns="http://www.w3.org/2000/svg">
<g filter="url(#filter0_d_20_955)">
<path d="M231.547 7.3841C216.694 2.34131 199.62 0.0413419 180.782 0.539199C162.474 1.02139 142.438 4.14063 121.236 9.8217C100.034 15.5029 81.123 22.8194 65.0265 31.5559C48.4631 40.5437 34.8269 51.0725 24.4857 62.8659C2.27242 88.2048 -4.67048 119.473 4.39082 153.29C13.2815 186.47 52.4209 250.191 97.4553 304.8C129.113 343.19 187.76 406.107 224.764 396.192C261.767 386.277 281.098 302.466 289.32 253.39C301.017 183.579 303.051 108.826 294.161 75.6462C285.099 41.8289 263.453 18.2215 231.547 7.3841Z" fill="#ED5564"/>
<path d="M231.547 7.3841C216.694 2.34131 199.62 0.0413419 180.782 0.539199C162.474 1.02139 142.438 4.14063 121.236 9.8217C118.795 10.4758 116.396 11.1567 114.014 11.858C132.54 7.34866 150.089 4.8456 166.297 4.42062C185.125 3.92531 202.209 6.22273 217.05 11.2684C248.958 22.1055 270.614 45.7103 279.675 79.5276C288.566 112.708 286.531 187.461 274.834 257.271C267.146 303.159 249.745 379.401 217.273 397.226C219.853 397.179 222.355 396.837 224.764 396.192C261.767 386.277 281.098 302.466 289.32 253.39C301.017 183.579 303.051 108.826 294.161 75.6462C285.099 41.8289 263.453 18.2215 231.547 7.3841Z" fill="#C9C9C9"/>
<path d="M142.806 90.3197C110.853 98.8815 92.5949 134.736 102.108 170.238C111.624 205.753 145.364 227.676 177.317 219.114C209.269 210.552 227.528 174.697 218.012 139.182C208.498 103.68 174.758 81.7582 142.806 90.3197Z" fill="#FFCE54"/>
<path d="M145.4 244.916C143.702 245.371 141.816 245.168 140.077 244.194C136.287 242.062 134.635 237.045 136.384 233.001L167.397 161.377L140.485 168.588C137.63 169.353 134.541 168.183 132.6 165.607C130.659 163.031 130.219 159.522 131.484 156.644L170.024 68.671C171.797 64.6322 176.291 63.1117 180.073 65.2575C183.859 67.4154 185.486 72.426 183.724 76.4618L152.302 148.171L179.117 140.985C181.962 140.223 185.036 141.384 186.988 143.957C188.927 146.521 189.374 150.015 188.133 152.9L150.113 240.734C149.164 242.921 147.416 244.376 145.4 244.916Z" fill="#434A54"/>
<path d="M359.626 219.283C352.689 205.215 342.242 191.515 328.57 178.547C315.283 165.942 298.91 153.98 279.901 143.005C260.891 132.03 242.346 123.831 224.786 118.627C206.718 113.27 189.631 111.073 173.98 112.1C140.355 114.31 113.336 131.51 95.8312 161.83C78.6558 191.579 61.274 264.312 54.5038 334.771C49.744 384.302 46.7238 470.261 79.9006 489.415C113.077 508.569 186.009 462.975 226.525 434.087C284.16 392.994 338.457 341.574 355.632 311.826C373.137 281.506 374.524 249.507 359.626 219.283Z" fill="#434A54"/>
<path d="M359.626 219.283C352.689 205.215 342.242 191.515 328.57 178.547C315.283 165.942 298.91 153.98 279.901 143.005C277.712 141.742 275.534 140.526 273.354 139.338C289.642 149.249 303.821 159.888 315.582 171.048C329.246 184.012 339.702 197.716 346.628 211.779C361.528 242.004 360.149 274.008 342.644 304.328C325.469 334.076 271.171 385.496 213.537 426.588C175.654 453.6 109.438 495.206 73.8725 484.85C75.7302 486.641 77.7413 488.169 79.9006 489.415C113.077 508.569 186.009 462.975 226.525 434.087C284.16 392.994 338.457 341.574 355.632 311.826C373.137 281.506 374.524 249.507 359.626 219.283Z" fill="#606975"/>
<path d="M238.232 215.178C209.584 198.638 171.32 211.08 152.943 242.911C134.559 274.753 142.915 314.112 171.563 330.652C200.211 347.191 238.476 334.749 256.86 302.907C275.236 271.076 266.88 231.718 238.232 215.178Z" fill="#FFCE54"/>
<path d="M130.75 326.328C129.228 325.449 128.038 323.973 127.497 322.054C126.324 317.866 128.704 313.151 132.8 311.528L205.375 282.811L181.247 268.88C178.687 267.403 177.33 264.392 177.779 261.198C178.228 258.004 180.398 255.211 183.328 254.07L272.786 219.116C276.895 217.514 281.149 219.616 282.306 223.808C283.457 228.011 281.064 232.705 276.965 234.312L204.04 262.799L228.082 276.68C230.632 278.152 231.985 281.147 231.547 284.347C231.104 287.53 228.95 290.317 226.032 291.48L137.04 326.704C134.822 327.579 132.558 327.372 130.75 326.328Z" fill="#434A54"/>
</g>
<defs>
<filter id="filter0_d_20_955" x="0.526245" y="0.472717" width="377.337" height="507.501" filterUnits="userSpaceOnUse" color-interpolation-filters="sRGB">
<feFlood flood-opacity="0" result="BackgroundImageFix"/>
<feColorMatrix in="SourceAlpha" type="matrix" values="0 0 0 0 0 0 0 0 0 0 0 0 0 0 0 0 0 0 127 0" result="hardAlpha"/>
<feOffset dx="4" dy="10"/>
<feGaussianBlur stdDeviation="2"/>
<feComposite in2="hardAlpha" operator="out"/>
<feColorMatrix type="matrix" values="0 0 0 0 0 0 0 0 0 0 0 0 0 0 0 0 0 0 0.1 0"/>
<feBlend mode="normal" in2="BackgroundImageFix" result="effect1_dropShadow_20_955"/>
<feBlend mode="normal" in="SourceGraphic" in2="effect1_dropShadow_20_955" result="shape"/>
</filter>
</defs>
</svg>
