<svg width="378" height="504" viewBox="0 0 378 504" fill="none" xmlns="http://www.w3.org/2000/svg">
<g filter="url(#filter0_d_20_958)">
<path d="M138.565 6.86234C153.444 1.85533 170.549 -0.428315 189.421 0.0660104C207.762 0.544776 227.833 3.64189 249.073 9.28265C270.314 14.9236 289.259 22.1881 305.384 30.8626C321.977 39.7867 335.638 50.2408 345.998 61.9505C368.251 87.1096 375.206 118.155 366.128 151.733C357.222 184.678 318.012 247.947 272.897 302.168C241.182 340.285 182.43 402.756 145.36 392.912C108.29 383.067 88.9253 299.85 80.6885 251.123C68.97 181.807 66.9324 107.584 75.8388 74.6401C84.9163 41.0628 106.601 17.6229 138.565 6.86234Z" fill="#ED5564"/>
<path d="M138.565 6.86234C153.444 1.85533 170.549 -0.428315 189.421 0.0660104C207.762 0.544776 227.833 3.64189 249.073 9.28265C251.519 9.93207 253.923 10.6082 256.309 11.3045C237.75 6.82715 220.169 4.34186 203.932 3.91989C185.07 3.42809 167.956 5.70921 153.088 10.7191C121.122 21.4793 99.428 44.9167 90.3504 78.494C81.4438 111.439 83.4821 185.662 95.2002 254.977C102.901 300.538 120.334 376.24 152.864 393.938C150.279 393.892 147.773 393.552 145.36 392.912C108.29 383.067 88.9253 299.85 80.6885 251.123C68.97 181.807 66.9324 107.584 75.8388 74.6401C84.9163 41.0628 106.601 17.6229 138.565 6.86234Z" fill="#C9C9C9"/>
<path d="M227.465 89.2095C259.475 97.7105 277.766 133.31 268.236 168.561C258.703 203.824 224.903 225.591 192.892 217.09C160.883 208.589 142.591 172.988 152.124 137.725C161.655 102.475 195.455 80.7087 227.465 89.2095Z" fill="#FFCE54"/>
<path d="M224.866 242.709C226.567 243.16 228.456 242.959 230.199 241.992C233.996 239.875 235.65 234.894 233.899 230.878L202.83 159.762L229.79 166.922C232.65 167.682 235.745 166.521 237.689 163.963C239.633 161.405 240.074 157.921 238.807 155.063L200.198 67.7144C198.422 63.7043 193.92 62.1945 190.131 64.3251C186.338 66.4677 184.708 71.4428 186.473 75.45L217.952 146.65L191.088 139.516C188.239 138.759 185.159 139.911 183.203 142.466C181.262 145.012 180.814 148.481 182.056 151.346L220.145 238.556C221.095 240.728 222.847 242.172 224.866 242.709Z" fill="#434A54"/>
<path d="M10.2564 217.258C17.2053 203.289 27.6712 189.687 41.3679 176.811C54.6786 164.295 71.0811 152.418 90.1244 141.521C109.168 130.624 127.747 122.484 145.338 117.316C163.438 111.997 180.556 109.816 196.235 110.835C229.92 113.03 256.988 130.108 274.524 160.213C291.73 189.75 309.143 261.968 315.926 331.926C320.694 381.106 323.72 466.455 290.483 485.473C257.248 504.492 184.184 459.22 143.596 430.538C85.8575 389.737 31.4633 338.681 14.2575 309.144C-3.27904 279.04 -4.66851 247.268 10.2564 217.258Z" fill="#434A54"/>
<path d="M10.2564 217.258C17.2053 203.289 27.6712 189.687 41.3679 176.811C54.6786 164.295 71.0811 152.418 90.1244 141.521C92.3169 140.267 94.4991 139.06 96.683 137.88C80.3656 147.721 66.1612 158.284 54.3787 169.366C40.6905 182.237 30.2161 195.844 23.277 209.807C8.35082 239.818 9.73172 271.595 27.2682 301.699C44.4744 331.237 98.8693 382.292 156.607 423.092C194.558 449.912 260.893 491.224 296.522 480.94C294.661 482.719 292.646 484.236 290.483 485.473C257.248 504.492 184.184 459.22 143.596 430.538C85.8575 389.737 31.4633 338.681 14.2575 309.144C-3.27904 279.04 -4.66851 247.268 10.2564 217.258Z" fill="#606975"/>
<path d="M131.868 213.182C160.567 196.759 198.899 209.113 217.31 240.718C235.727 272.334 227.355 311.414 198.656 327.836C169.957 344.259 131.624 331.905 113.207 300.289C94.797 268.683 103.169 229.604 131.868 213.182Z" fill="#FFCE54"/>
<path d="M239.542 323.543C241.067 322.671 242.26 321.205 242.802 319.299C243.977 315.142 241.592 310.46 237.489 308.848L164.783 280.335L188.955 266.503C191.519 265.036 192.879 262.046 192.429 258.875C191.979 255.704 189.805 252.931 186.87 251.798L97.252 217.092C93.1352 215.501 88.8742 217.589 87.715 221.751C86.562 225.924 88.9587 230.584 93.0657 232.181L166.121 260.465L142.036 274.248C139.481 275.71 138.125 278.683 138.565 281.86C139.008 285.021 141.167 287.788 144.089 288.943L233.241 323.916C235.463 324.786 237.732 324.58 239.542 323.543Z" fill="#434A54"/>
</g>
<defs>
<filter id="filter0_d_20_958" x="0" y="0" width="378" height="504" filterUnits="userSpaceOnUse" color-interpolation-filters="sRGB">
<feFlood flood-opacity="0" result="BackgroundImageFix"/>
<feColorMatrix in="SourceAlpha" type="matrix" values="0 0 0 0 0 0 0 0 0 0 0 0 0 0 0 0 0 0 127 0" result="hardAlpha"/>
<feOffset dx="4" dy="10"/>
<feGaussianBlur stdDeviation="2"/>
<feComposite in2="hardAlpha" operator="out"/>
<feColorMatrix type="matrix" values="0 0 0 0 0 0 0 0 0 0 0 0 0 0 0 0 0 0 0.1 0"/>
<feBlend mode="normal" in2="BackgroundImageFix" result="effect1_dropShadow_20_958"/>
<feBlend mode="normal" in="SourceGraphic" in2="effect1_dropShadow_20_958" result="shape"/>
</filter>
</defs>
</svg>
