<svg width="73" height="74" viewBox="0 0 73 74" fill="none" xmlns="http://www.w3.org/2000/svg">
<path d="M73 37C73 57.1584 56.6584 73.5 36.5 73.5C16.3416 73.5 0 57.1584 0 37C0 16.8416 16.3416 0.5 36.5 0.5C56.6584 0.5 73 16.8416 73 37Z" fill="#00A884"/>
<path d="M49.5094 23.3095C45.9669 19.7586 41.2492 17.8055 36.2356 17.8055C25.887 17.8055 17.4662 26.2264 17.4662 36.5749C17.4662 39.8807 18.3285 43.1104 19.9688 45.9596L17.3055 55.6825L27.2567 53.07C29.996 54.5665 33.082 55.3528 36.2271 55.3528H36.2356C46.5757 55.3528 55.1825 46.9319 55.1825 36.5834C55.1825 31.5698 53.052 26.8605 49.5094 23.3095ZM36.2356 52.1908C33.4286 52.1908 30.6808 51.4383 28.2882 50.0179L27.7217 49.6797L21.8203 51.2269L23.3929 45.4693L23.0209 44.8774C21.4568 42.3918 20.6367 39.5256 20.6367 36.5749C20.6367 27.9765 27.6372 20.976 36.244 20.976C40.4122 20.976 44.3267 22.5993 47.269 25.55C50.2112 28.5007 52.0205 32.4152 52.012 36.5834C52.012 45.1903 44.834 52.1908 36.2356 52.1908ZM44.7917 40.5064C44.3267 40.2696 42.0186 39.1367 41.5874 38.9845C41.1562 38.8239 40.8434 38.7478 40.5306 39.2213C40.2177 39.6947 39.3215 40.7431 39.0425 41.0644C38.772 41.3772 38.493 41.4195 38.028 41.1827C35.2717 39.8046 33.4624 38.7224 31.6447 35.6026C31.1628 34.7741 32.1266 34.8333 33.0228 33.0409C33.175 32.7281 33.0989 32.4575 32.9805 32.2208C32.8622 31.984 31.9237 29.6759 31.5348 28.7374C31.1543 27.8243 30.7654 27.9512 30.4779 27.9342C30.2074 27.9173 29.8946 27.9173 29.5817 27.9173C29.2689 27.9173 28.7616 28.0357 28.3304 28.5007C27.8993 28.9742 26.6902 30.1071 26.6902 32.4152C26.6902 34.7234 28.3727 36.9554 28.601 37.2682C28.8377 37.581 31.9068 42.3157 36.616 44.3533C39.5921 45.6384 40.7588 45.7483 42.2469 45.5285C43.1515 45.3932 45.02 44.3955 45.4089 43.2964C45.7978 42.1973 45.7978 41.2588 45.6795 41.0644C45.5696 40.853 45.2567 40.7346 44.7917 40.5064Z" fill="white"/>
</svg>
