<svg width="32" height="27" viewBox="0 0 32 27" fill="none" xmlns="http://www.w3.org/2000/svg">
<path d="M28.2229 0.586426H3.77723C2.0979 0.586426 0.737567 2.03914 0.737567 3.81533L0.7229 23.1849C0.7229 24.9611 2.0979 26.4138 3.77723 26.4138H28.2229C29.9022 26.4138 31.2772 24.9611 31.2772 23.1849V3.81533C31.2772 2.03914 29.9022 0.586426 28.2229 0.586426ZM27.6106 7.44713L16.8104 14.5829C16.5667 14.7414 16.2862 14.8253 16.0001 14.8253C15.7139 14.8253 15.4334 14.7414 15.1897 14.5829L4.38957 7.44713C4.23851 7.35513 4.10654 7.23193 4.00154 7.08487C3.89654 6.93781 3.82065 6.7699 3.77842 6.59118C3.73619 6.41245 3.72847 6.22656 3.75573 6.04462C3.78298 5.86267 3.84466 5.68839 3.93707 5.53218C4.02947 5.37597 4.15073 5.24103 4.29358 5.13541C4.43643 5.0298 4.59796 4.95567 4.76853 4.91746C4.93909 4.87925 5.1152 4.87774 5.28633 4.91301C5.45746 4.94829 5.62011 5.01963 5.76457 5.12278L16.0001 11.8866L26.2356 5.12278C26.38 5.01963 26.5427 4.94829 26.7138 4.91301C26.8849 4.87774 27.061 4.87925 27.2316 4.91746C27.4022 4.95567 27.5637 5.0298 27.7066 5.13541C27.8494 5.24103 27.9707 5.37597 28.0631 5.53218C28.1555 5.68839 28.2172 5.86267 28.2444 6.04462C28.2717 6.22656 28.2639 6.41245 28.2217 6.59118C28.1795 6.7699 28.1036 6.93781 27.9986 7.08487C27.8936 7.23193 27.7616 7.35513 27.6106 7.44713Z" fill="white"/>
</svg>
