<svg width="34" height="34" viewBox="0 0 34 34" fill="none" xmlns="http://www.w3.org/2000/svg">
<path fill-rule="evenodd" clip-rule="evenodd" d="M17 0C12.3831 0 11.8042 0.0195697 9.99093 0.102302C8.18148 0.184832 6.94569 0.472238 5.86436 0.892513C4.74646 1.32689 3.79841 1.90819 2.85326 2.85326C1.90817 3.79841 1.32689 4.74646 0.892512 5.86436C0.472237 6.94569 0.184833 8.18149 0.102302 9.99093C0.0195697 11.8042 0 12.3831 0 17.0001C0 21.617 0.0195697 22.1958 0.102302 24.0092C0.184833 25.8186 0.472237 27.0544 0.892512 28.1357C1.32689 29.2537 1.90817 30.2017 2.85326 31.1468C3.79841 32.0919 4.74646 32.6732 5.86436 33.1076C6.94569 33.5278 8.18148 33.8152 9.99093 33.8978C11.8042 33.9804 12.3831 34 17 34C21.617 34 22.1959 33.9804 24.0091 33.8978C25.8186 33.8152 27.0543 33.5278 28.1357 33.1076C29.2535 32.6732 30.2016 32.0919 31.1468 31.1468C32.0919 30.2017 32.6732 29.2537 33.1076 28.1357C33.5278 27.0544 33.8152 25.8186 33.8977 24.0092C33.9804 22.1958 34 21.617 34 17.0001C34 12.3831 33.9804 11.8042 33.8977 9.99093C33.8152 8.18149 33.5278 6.94569 33.1076 5.86436C32.6732 4.74646 32.0919 3.79841 31.1468 2.85326C30.2016 1.90819 29.2535 1.32689 28.1357 0.892513C27.0543 0.472238 25.8186 0.184832 24.0091 0.102302C22.1959 0.0195697 21.617 0 17 0ZM11.3334 17.0001C11.3334 20.1297 13.8704 22.6668 17 22.6668C20.1297 22.6668 22.6668 20.1297 22.6668 17.0001C22.6668 13.8704 20.1297 11.3334 17 11.3334C13.8704 11.3334 11.3334 13.8704 11.3334 17.0001ZM8.27029 17.0001C8.27029 12.1787 12.1787 8.27029 17 8.27029C21.8213 8.27029 25.7297 12.1787 25.7297 17.0001C25.7297 21.8213 21.8213 25.7297 17 25.7297C12.1787 25.7297 8.27029 21.8213 8.27029 17.0001ZM26.0746 9.96537C27.2014 9.96537 28.1147 9.05207 28.1147 7.92539C28.1147 6.79871 27.2014 5.88535 26.0746 5.88535C24.948 5.88535 24.0347 6.79871 24.0347 7.92539C24.0347 9.05207 24.948 9.96537 26.0746 9.96537Z" fill="white"/>
</svg>
