<svg width="34" height="34" viewBox="0 0 34 34" fill="none" xmlns="http://www.w3.org/2000/svg">
<path fill-rule="evenodd" clip-rule="evenodd" d="M26.8957 24.0059C26.486 25.1656 24.8574 26.125 23.5586 26.4056C22.6695 26.5944 21.5101 26.7437 17.6035 25.1248C13.2158 23.307 7.123 16.8317 7.123 12.5226C7.123 10.3289 8.3878 7.77451 10.5995 7.77451C11.6637 7.77451 11.8983 7.79526 12.2485 8.6353C12.6582 9.62501 13.6578 12.0634 13.7768 12.3134C14.2681 13.3388 13.277 13.9391 12.5579 14.8318C12.3284 15.1005 12.0683 15.3911 12.359 15.891C12.648 16.3808 13.6476 18.0099 15.1164 19.3176C17.0136 21.0079 18.5521 21.5475 19.1029 21.7771C19.5126 21.9472 20.0022 21.9075 20.3014 21.5878C20.6805 21.178 21.1514 20.4981 21.6308 19.8281C21.9691 19.3485 22.3992 19.2886 22.8497 19.4587C23.154 19.5641 27.0215 21.3602 27.1847 21.6476C27.3054 21.8568 27.3054 22.8461 26.8957 24.0059ZM17.0034 0H16.9949C7.62279 0 0 7.6251 0 17C0 20.7173 1.19851 24.1661 3.23681 26.9634L1.11861 33.2803L7.65171 31.1927C10.3394 32.9714 13.5473 34 17.0034 34C26.3755 34 34 26.3749 34 17C34 7.6251 26.3755 0 17.0034 0Z" fill="white"/>
</svg>
